<svg width="44" height="24" viewBox="0 0 44 24" fill="none" xmlns="http://www.w3.org/2000/svg">
<rect x="0.5" y="0.5" width="43" height="23" rx="4.5" fill="#00C742"/>
<rect x="0.5" y="0.5" width="43" height="23" rx="4.5" stroke="black" stroke-linejoin="round"/>
<path d="M33.8641 12.8188H28V10.8641H33.8641V5H35.8188V10.8641H41.6829V12.8188H35.8188V18.6829H33.8641V12.8188Z" fill="#FEF7FF"/>
<path d="M5.26278 16H3.28551L6.2983 7.27273H8.67614L11.6847 16H9.70739L7.52131 9.26705H7.45312L5.26278 16ZM5.1392 12.5696H9.80966V14.0099H5.1392V12.5696ZM14.8082 16.1065C14.3111 16.1065 13.8608 15.9787 13.4574 15.723C13.0568 15.4645 12.7386 15.0852 12.5028 14.5852C12.2699 14.0824 12.1534 13.4659 12.1534 12.7358C12.1534 11.9858 12.2741 11.3622 12.5156 10.8651C12.7571 10.3651 13.0781 9.99148 13.4787 9.74432C13.8821 9.49432 14.3239 9.36932 14.804 9.36932C15.1705 9.36932 15.4759 9.43182 15.7202 9.55682C15.9673 9.67898 16.1662 9.83239 16.3168 10.017C16.4702 10.1989 16.5866 10.3778 16.6662 10.554H16.7216V7.27273H18.5327V16H16.7429V14.9517H16.6662C16.581 15.1335 16.4602 15.3139 16.304 15.4929C16.1506 15.669 15.9503 15.8153 15.7031 15.9318C15.4588 16.0483 15.1605 16.1065 14.8082 16.1065ZM15.3835 14.6619C15.6761 14.6619 15.9233 14.5824 16.125 14.4233C16.3295 14.2614 16.4858 14.0355 16.5938 13.7457C16.7045 13.456 16.7599 13.1165 16.7599 12.7273C16.7599 12.3381 16.706 12 16.598 11.7131C16.4901 11.4261 16.3338 11.2045 16.1293 11.0483C15.9247 10.892 15.6761 10.8139 15.3835 10.8139C15.0852 10.8139 14.8338 10.8949 14.6293 11.0568C14.4247 11.2187 14.2699 11.4432 14.1648 11.7301C14.0597 12.017 14.0071 12.3494 14.0071 12.7273C14.0071 13.108 14.0597 13.4446 14.1648 13.7372C14.2727 14.027 14.4276 14.2543 14.6293 14.419C14.8338 14.581 15.0852 14.6619 15.3835 14.6619ZM22.4371 16.1065C21.94 16.1065 21.4897 15.9787 21.0863 15.723C20.6857 15.4645 20.3675 15.0852 20.1317 14.5852C19.8988 14.0824 19.7823 13.4659 19.7823 12.7358C19.7823 11.9858 19.9031 11.3622 20.1445 10.8651C20.386 10.3651 20.707 9.99148 21.1076 9.74432C21.511 9.49432 21.9528 9.36932 22.4329 9.36932C22.7994 9.36932 23.1048 9.43182 23.3491 9.55682C23.5962 9.67898 23.7951 9.83239 23.9457 10.017C24.0991 10.1989 24.2156 10.3778 24.2951 10.554H24.3505V7.27273H26.1616V16H24.3718V14.9517H24.2951C24.2099 15.1335 24.0891 15.3139 23.9329 15.4929C23.7795 15.669 23.5792 15.8153 23.332 15.9318C23.0877 16.0483 22.7894 16.1065 22.4371 16.1065ZM23.0124 14.6619C23.305 14.6619 23.5522 14.5824 23.7539 14.4233C23.9585 14.2614 24.1147 14.0355 24.2227 13.7457C24.3335 13.456 24.3888 13.1165 24.3888 12.7273C24.3888 12.3381 24.3349 12 24.2269 11.7131C24.119 11.4261 23.9627 11.2045 23.7582 11.0483C23.5536 10.892 23.305 10.8139 23.0124 10.8139C22.7141 10.8139 22.4627 10.8949 22.2582 11.0568C22.0536 11.2187 21.8988 11.4432 21.7937 11.7301C21.6886 12.017 21.636 12.3494 21.636 12.7273C21.636 13.108 21.6886 13.4446 21.7937 13.7372C21.9016 14.027 22.0565 14.2543 22.2582 14.419C22.4627 14.581 22.7141 14.6619 23.0124 14.6619Z" fill="white"/>
</svg>
