<svg width="20" height="20" viewBox="0 0 20 20" fill="none" xmlns="http://www.w3.org/2000/svg">
<rect x="19.5" y="19.5" width="19" height="19" rx="4.5" transform="rotate(-180 19.5 19.5)" stroke="black"/>
<path d="M5 10.498C5 10.4297 5.01302 10.3646 5.03906 10.3027C5.0651 10.2441 5.10091 10.1921 5.14649 10.1465C5.19206 10.1009 5.24577 10.0651 5.30762 10.0391C5.36621 10.013 5.42969 10 5.49805 10L13.2959 10L10.1465 6.85547C10.0488 6.75781 10 6.64062 10 6.50391C10 6.43555 10.013 6.37044 10.0391 6.30859C10.0651 6.24674 10.1009 6.19303 10.1465 6.14746C10.1888 6.10189 10.2409 6.06608 10.3027 6.04004C10.3646 6.014 10.4297 6.00098 10.498 6.00098C10.638 6.00098 10.7568 6.0498 10.8545 6.14746L14.8535 10.1465L14.8682 10.1611L14.8682 10.166C14.9561 10.2539 15 10.3646 15 10.498C15 10.638 14.9512 10.7568 14.8535 10.8545L10.8545 14.8535C10.7568 14.9512 10.638 15 10.498 15C10.4297 15 10.3662 14.987 10.3076 14.9609C10.2458 14.9349 10.1921 14.8991 10.1465 14.8535C10.1009 14.8079 10.0651 14.7542 10.0391 14.6924C10.013 14.6338 10 14.5703 10 14.502C10 14.362 10.0488 14.2432 10.1465 14.1455L13.291 11.001L5.49805 11.001C5.42969 11.001 5.36621 10.988 5.30762 10.9619C5.24577 10.9359 5.19206 10.8984 5.14649 10.8496C5.10091 10.804 5.0651 10.7503 5.03906 10.6885C5.01302 10.6299 5 10.5664 5 10.498Z" fill="black" fill-opacity="0.8956"/>
</svg>
