<svg width="120" height="36" viewBox="0 0 120 36" fill="none" xmlns="http://www.w3.org/2000/svg">
<rect x="0.5" y="1" width="119" height="34" rx="3.5" fill="#005FB8"/>
<rect x="0.5" y="1" width="119" height="34" rx="3.5" stroke="url(#paint0_linear_173002_7773)"/>
<path d="M38.9231 23V12.71H41.5411C42.3811 12.71 43.0437 12.794 43.5291 12.962C44.0237 13.13 44.3877 13.3447 44.6211 13.606C44.8637 13.8673 45.0224 14.1427 45.0971 14.432C45.1717 14.7213 45.2091 14.992 45.2091 15.244C45.2091 15.5147 45.1671 15.7993 45.0831 16.098C45.0084 16.3873 44.8777 16.658 44.6911 16.91C44.5044 17.1527 44.2477 17.3487 43.9211 17.498C44.6211 17.6753 45.1157 17.9833 45.4051 18.422C45.7037 18.8513 45.8531 19.332 45.8531 19.864C45.8531 20.228 45.8111 20.5967 45.7271 20.97C45.6431 21.3433 45.4657 21.684 45.1951 21.992C44.9337 22.2907 44.5371 22.5333 44.0051 22.72C43.4731 22.9067 42.7591 23 41.8631 23H38.9231ZM40.4631 17.078H41.7931C42.2784 17.078 42.6517 16.9987 42.9131 16.84C43.1744 16.672 43.3564 16.4573 43.4591 16.196C43.5711 15.9347 43.6271 15.6593 43.6271 15.37C43.6271 15.1273 43.5711 14.908 43.4591 14.712C43.3564 14.5067 43.1651 14.3433 42.8851 14.222C42.6144 14.1007 42.2271 14.04 41.7231 14.04H40.4631V17.078ZM40.4631 21.684H42.0731C42.5491 21.684 42.9271 21.628 43.2071 21.516C43.4964 21.404 43.7157 21.2593 43.8651 21.082C44.0144 20.9047 44.1124 20.7133 44.1591 20.508C44.2057 20.2933 44.2291 20.0833 44.2291 19.878C44.2291 19.3927 44.0657 19.0147 43.7391 18.744C43.4124 18.464 42.8991 18.324 42.1991 18.324H40.4631V21.684ZM47.3553 23V16.574H48.8673V17.834C49.0167 17.414 49.2547 17.0733 49.5813 16.812C49.9173 16.5413 50.3047 16.406 50.7433 16.406C51.042 16.406 51.2473 16.434 51.3593 16.49L51.1493 18.016C51.0653 17.96 50.8833 17.932 50.6033 17.932C50.37 17.932 50.118 17.9833 49.8473 18.086C49.5767 18.1887 49.3433 18.3707 49.1473 18.632C48.9607 18.884 48.8673 19.2387 48.8673 19.696V23H47.3553ZM55.1648 23.14C54.4928 23.14 53.9001 22.9907 53.3868 22.692C52.8828 22.3933 52.4908 21.9873 52.2108 21.474C51.9308 20.9607 51.7908 20.3913 51.7908 19.766C51.7908 19.15 51.9261 18.59 52.1968 18.086C52.4768 17.5727 52.8688 17.1667 53.3728 16.868C53.8768 16.56 54.4741 16.406 55.1648 16.406C55.8555 16.406 56.4528 16.56 56.9568 16.868C57.4608 17.1667 57.8481 17.5727 58.1188 18.086C58.3895 18.59 58.5248 19.15 58.5248 19.766C58.5248 20.3913 58.3848 20.9607 58.1048 21.474C57.8341 21.9873 57.4468 22.3933 56.9428 22.692C56.4388 22.9907 55.8461 23.14 55.1648 23.14ZM55.2068 21.908C55.7668 21.908 56.1961 21.7027 56.4948 21.292C56.8028 20.8813 56.9568 20.382 56.9568 19.794C56.9568 19.3927 56.8821 19.0333 56.7328 18.716C56.5835 18.3893 56.3688 18.128 56.0888 17.932C55.8181 17.736 55.4961 17.638 55.1228 17.638C54.7588 17.638 54.4461 17.736 54.1848 17.932C53.9235 18.128 53.7181 18.3893 53.5688 18.716C53.4288 19.0333 53.3588 19.3927 53.3588 19.794C53.3588 20.186 53.4381 20.5453 53.5968 20.872C53.7555 21.1893 53.9701 21.4413 54.2408 21.628C54.5208 21.8147 54.8428 21.908 55.2068 21.908ZM65.7584 23L63.8544 19.43L61.9504 23H61.6844L58.9824 16.574H60.6064L61.9924 20.312L63.8264 16.574H63.8824L65.7304 20.284L67.1164 16.574H68.7124L66.0244 23H65.7584ZM71.7304 23.14C71.4317 23.14 71.1191 23.112 70.7924 23.056C70.4751 23 70.1811 22.93 69.9104 22.846C69.6491 22.7527 69.4484 22.6547 69.3084 22.552L69.8124 21.362C69.9711 21.474 70.2091 21.6 70.5264 21.74C70.8531 21.88 71.2544 21.95 71.7304 21.95C72.1504 21.95 72.4351 21.8893 72.5844 21.768C72.7337 21.6373 72.8084 21.488 72.8084 21.32C72.8084 21.1427 72.7431 21.0073 72.6124 20.914C72.4911 20.8113 72.3137 20.718 72.0804 20.634C71.8471 20.55 71.5717 20.4473 71.2544 20.326C70.9464 20.1953 70.6524 20.046 70.3724 19.878C70.0924 19.7007 69.8637 19.486 69.6864 19.234C69.5184 18.9727 69.4344 18.6553 69.4344 18.282C69.4344 17.6753 69.6677 17.2133 70.1344 16.896C70.6011 16.5693 71.2171 16.406 71.9824 16.406C72.3744 16.406 72.7524 16.448 73.1164 16.532C73.4897 16.616 73.7697 16.7233 73.9564 16.854L73.4104 18.058C73.2984 17.946 73.1117 17.8433 72.8504 17.75C72.5984 17.6567 72.2951 17.61 71.9404 17.61C71.2777 17.61 70.9464 17.8107 70.9464 18.212C70.9464 18.408 71.0164 18.5667 71.1564 18.688C71.3057 18.8 71.4971 18.898 71.7304 18.982C71.9731 19.0567 72.2344 19.15 72.5144 19.262C73.0837 19.486 73.5177 19.7473 73.8164 20.046C74.1244 20.3353 74.2784 20.7227 74.2784 21.208C74.2784 21.6467 74.1617 22.0107 73.9284 22.3C73.6951 22.5893 73.3824 22.804 72.9904 22.944C72.6077 23.0747 72.1877 23.14 71.7304 23.14ZM78.7498 23.14C77.9471 23.14 77.2938 22.986 76.7898 22.678C76.2858 22.3607 75.9171 21.9453 75.6838 21.432C75.4504 20.9187 75.3338 20.3727 75.3338 19.794C75.3338 19.094 75.4738 18.492 75.7538 17.988C76.0431 17.484 76.4398 17.0967 76.9438 16.826C77.4478 16.546 78.0171 16.406 78.6518 16.406C79.6691 16.406 80.4111 16.6907 80.8778 17.26C81.3444 17.82 81.5778 18.576 81.5778 19.528C81.5778 19.78 81.5638 20.0413 81.5358 20.312H76.9158C77.0184 20.8907 77.2238 21.306 77.5318 21.558C77.8491 21.8007 78.2691 21.922 78.7918 21.922C79.2958 21.922 79.6924 21.8753 79.9818 21.782C80.2711 21.6887 80.5091 21.5953 80.6958 21.502L81.1578 22.58C80.9711 22.7013 80.6818 22.8273 80.2898 22.958C79.8978 23.0793 79.3844 23.14 78.7498 23.14ZM76.9158 19.262H80.1078C80.1171 18.6553 79.9818 18.24 79.7018 18.016C79.4218 17.792 79.0578 17.68 78.6098 17.68C78.1431 17.68 77.7604 17.806 77.4618 18.058C77.1724 18.3007 76.9904 18.702 76.9158 19.262Z" fill="white"/>
<defs>
<linearGradient id="paint0_linear_173002_7773" x1="60" y1="0.5" x2="60" y2="35.5" gradientUnits="userSpaceOnUse">
<stop offset="0.906738" stop-color="white" stop-opacity="0.08"/>
<stop offset="1" stop-opacity="0.4"/>
</linearGradient>
</defs>
</svg>
